<svg id="Layer_1" enable-background="new 0 0 512.518 512.518" height="512" viewBox="0 0 512.518 512.518" width="512" xmlns="http://www.w3.org/2000/svg"><g><g><g><path d="m42.112 303.647h142.764v166.012h-142.764z" fill="#ff59ac"/><path d="m184.877 211.523h142.764v258.137h-142.764z" fill="#ffea00"/><path d="m327.641 369.839h142.764v99.82h-142.764z" fill="#87dbff"/><path d="m430.405 369.839h40v99.82h-40z" fill="#6bd3ff"/></g><g><circle cx="256.259" cy="85.624" fill="#fff6e0" r="77.971"/><path d="m256.259 7.653c-6.915 0-13.616.911-20 2.601 33.369 8.832 57.971 39.223 57.971 75.37s-24.602 66.538-57.971 75.37c6.384 1.69 13.085 2.601 20 2.601 43.062 0 77.971-34.909 77.971-77.971 0-43.063-34.909-77.971-77.971-77.971z" fill="#fff0cc"/><path d="m256.259 42.152 13.191 26.728 29.496 4.286-21.343 20.805 5.038 29.377-26.382-13.87-26.382 13.87 5.038-29.377-21.343-20.805 29.496-4.286z" fill="#ffea00"/></g><path d="m504.759 505.018h-497l3.465-12.252c3.866-13.669 16.342-23.107 30.548-23.107h428.974c14.206 0 26.682 9.437 30.548 23.107z" fill="#fff6e0"/><path d="m501.294 492.766c-3.866-13.669-16.343-23.107-30.548-23.107h-40c14.206 0 26.682 9.437 30.548 23.107l3.465 12.251h40z" fill="#fff0cc"/></g><g><path d="m256.259 171.094c47.129 0 85.471-38.342 85.471-85.471.853-59.277-62.087-102.072-116.856-79.496-8.995 3.553-3.481 17.51 5.514 13.949 45.158-18.603 97.047 16.672 96.342 65.548.001 38.857-31.613 70.47-70.47 70.47-59.345.201-92.285-70.305-54.082-115.637 6.203-7.421-5.303-17.044-11.508-9.623-12.82 15.332-19.881 34.79-19.881 54.789-.001 47.129 38.341 85.471 85.47 85.471z"/><path d="m208.336 78.537 18.521 18.052-4.371 25.491c-1.031 5.999 5.493 10.738 10.882 7.906l22.892-12.035 22.892 12.035c5.393 2.836 11.911-1.918 10.882-7.906l-4.371-25.491 18.521-18.052c4.364-4.255 1.861-11.919-4.157-12.793l-25.594-3.72-11.446-23.192c-2.695-5.46-10.755-5.462-13.451 0l-11.446 23.192-25.594 3.72c-6.018.874-8.526 8.536-4.16 12.793zm35.81-2.235c2.443-.354 4.555-1.889 5.647-4.103l6.466-13.102 6.466 13.102c1.093 2.214 3.204 3.748 5.647 4.103l14.457 2.101-10.462 10.197c-1.768 1.724-2.574 4.206-2.156 6.639l2.469 14.399-12.931-6.799c-2.167-1.138-4.814-1.138-6.98 0l-12.931 6.799 2.469-14.399c.418-2.433-.389-4.915-2.156-6.639l-10.462-10.197z"/><path d="m511.976 502.977c-1.861-6.582-3.258-13.661-6.456-19.751-5.544-10.557-15.893-18.207-27.614-20.402v-92.985c0-4.143-3.357-7.5-7.5-7.5h-135.265v-150.816c0-4.143-3.357-7.5-7.5-7.5h-142.764c-4.143 0-7.5 3.357-7.5 7.5v84.624h-135.265c-4.143 0-7.5 3.357-7.5 7.5v159.177c-14.432 2.703-26.51 13.422-30.605 27.901l-3.465 12.252c-1.33 4.704 2.34 9.541 7.217 9.541h400.576c9.673 0 9.673-15 0-15h-390.661c2.766-11.773 11.695-20.241 24.098-20.358h428.974c12.285.085 21.374 8.576 24.098 20.358h-46.847c-9.673 0-9.673 15 0 15h56.762c4.879 0 8.547-4.838 7.217-9.541zm-49.071-125.638v84.82h-127.764v-84.82zm-270.528-158.316h127.764v243.137h-127.764zm-15 92.124v151.013h-127.765v-151.013z"/><path d="m375.198 276.408h8.425c9.931-.344 9.923-14.66 0-15h-8.425c-9.93.343-9.923 14.659 0 15z"/><path d="m406.652 308.985c4.143 0 7.5-3.357 7.5-7.5v-8.425c-.344-9.931-14.66-9.923-15 0v8.425c0 4.142 3.358 7.5 7.5 7.5z"/><path d="m423.305 270.031c0 4.143 3.357 7.5 7.5 7.5h8.425c9.931-.344 9.923-14.66 0-15h-8.425c-4.143 0-7.5 3.357-7.5 7.5z"/><path d="m407.776 253.378c4.143 0 7.5-3.357 7.5-7.5v-8.425c-.344-9.931-14.66-9.923-15 0v8.425c0 4.143 3.357 7.5 7.5 7.5z"/><path d="m412.105 106.682h8.426c9.931-.344 9.923-14.66 0-15h-8.426c-9.931.343-9.924 14.66 0 15z"/><path d="m443.56 139.259c4.143 0 7.5-3.357 7.5-7.5v-8.425c-.344-9.931-14.66-9.923-15 0v8.425c0 4.143 3.357 7.5 7.5 7.5z"/><path d="m467.712 107.805h8.425c9.931-.344 9.923-14.66 0-15h-8.425c-9.931.344-9.923 14.66 0 15z"/><path d="m444.683 83.653c4.143 0 7.5-3.357 7.5-7.5v-8.425c-.344-9.931-14.66-9.923-15 0v8.425c0 4.142 3.357 7.5 7.5 7.5z"/><path d="m36.381 171.626h8.425c9.931-.344 9.923-14.66 0-15h-8.425c-9.931.344-9.923 14.66 0 15z"/><path d="m67.835 204.203c4.143 0 7.5-3.357 7.5-7.5v-8.425c-.344-9.931-14.66-9.923-15 0v8.425c0 4.143 3.358 7.5 7.5 7.5z"/><path d="m91.987 172.749h8.426c9.931-.344 9.923-14.66 0-15h-8.426c-9.93.344-9.923 14.66 0 15z"/><path d="m68.958 148.597c4.143 0 7.5-3.357 7.5-7.5v-8.425c-.344-9.931-14.66-9.923-15 0v8.425c0 4.143 3.358 7.5 7.5 7.5z"/><path d="m290.993 440.375c4.143 0 7.5-3.357 7.5-7.5v-183.406c-.344-9.931-14.66-9.923-15 0v183.406c0 4.143 3.358 7.5 7.5 7.5z"/><path d="m433.727 440.375c4.143 0 7.5-3.357 7.5-7.5v-29.406c-.344-9.931-14.66-9.923-15 0v29.406c0 4.143 3.357 7.5 7.5 7.5z"/><path d="m148.259 440.375c4.143 0 7.5-3.357 7.5-7.5v-92.038c-.344-9.931-14.66-9.923-15 0v92.038c0 4.143 3.357 7.5 7.5 7.5z"/></g></g></svg>